<svg width="396" height="364" viewBox="0 0 396 364" fill="none" xmlns="http://www.w3.org/2000/svg">
<path d="M174.372 158.992C172.497 158.992 169.272 160.105 167.58 161.694C166.461 162.743 164.827 164.953 163.642 166.966C162.686 168.591 161.928 170.446 160.648 175.35C158.979 181.745 161.379 184.364 162.055 186.127C163.161 189.012 166.559 192.878 167.706 193.969C169.111 195.307 171.804 196.674 173.894 197.346C176.787 198.277 183.76 196.898 186.346 196.12C188.658 195.424 191.658 193.451 192.774 192.535C193.772 191.716 194.557 190.57 195.667 189.197C196.784 187.815 197.852 183.976 198.363 181.744C198.716 180.2 198.732 178.896 198.734 173.148C198.735 170.642 197.997 168.847 197.356 167.434C196.804 166.216 195.978 165.046 195.103 163.988C194.042 162.705 192.817 162.16 190.868 161.21C189.522 160.554 188.375 160.19 187.297 159.837C186.125 159.452 184.608 159.485 182.121 159.379C180.765 159.321 179.294 159.831 178.01 160.466C176.945 160.993 176.06 161.801 174.982 162.575C173.76 163.451 172.761 165.24 171.986 167.281C171.551 168.426 171.546 172.11 171.612 176.854C171.662 180.373 173.694 182.82 174.939 183.81C176.897 185.367 181.963 183.676 183.855 182.831C185.546 182.076 186.95 180.795 188.13 179.215C189.76 177.033 189.243 175.521 189.212 173.346C189.163 169.94 187.499 167.931 186.322 166.205C185.293 164.695 183.869 163.497 182.286 162.651C180.011 161.433 176.011 161.945 173.739 162.294C171.117 162.697 169.737 164.472 166.814 167.03C163.113 170.269 162.267 173.458 161.352 177.222C160.282 181.63 162.784 185.68 164.408 188.342C166.174 191.237 169.587 194.637 171.068 195.691C172.986 197.057 174.501 197.312 178.593 197.14C183.083 196.951 184.459 194.645 187.314 192.507C190.81 189.89 191.258 186.642 192.102 184.523C193.024 182.208 192.675 180.516 192.644 175.501C192.631 173.468 191.739 172.146 191.033 171.163C189.989 169.709 187.907 169.049 185.324 168.731C178.796 167.926 176.872 169.324 173.813 170.552C170.693 171.806 170.136 173.821 169.16 175.089C168.168 176.378 168.049 177.829 167.744 180.143C167.009 185.723 168.315 188.026 168.985 189.396C170.191 191.865 172.139 193.367 173.894 193.972C176.899 195.009 179.076 193.169 181.195 191.764C182.466 190.921 183.316 188.68 184.195 185.791C184.468 184.894 184.467 183.332 184.367 181.435C184.329 180.714 184.067 180.512 183.797 180.439C182.343 180.046 180.437 181.698 178.015 183.49C177.16 184.123 176.595 184.514 176.225 185.004C175.375 186.134 175.583 188.857 176.219 190.944C176.456 191.264 176.722 191.473 176.993 191.615C177.263 191.757 177.53 191.827 178.006 191.899" stroke="#2F2E2C" stroke-width="10" stroke-linecap="round"/>
<path d="M176.066 157.282C176.066 156.564 173.939 144.35 170.716 119.763C167.332 93.9441 170.684 73.2391 172.65 61.6502C174.741 49.3221 177.36 39.3763 180.405 32.8286C184.001 25.0992 188.905 15.8286 198.781 9.02956C205.358 4.50128 218.22 3.92301 233.844 6.62583C247.74 9.02956 257.016 13.3286 265.733 20.401C272.131 25.5914 280.074 33.0639 282.588 42.8664C287.405 61.6502 286.905 57.8286 284.576 75.2622C281.727 96.576 266.278 114.724 256.905 125.329C247.568 135.893 236.245 144.926 218.219 162.829C206.353 174.614 197.229 175.033 192.722 176.316C184.522 178.651 211.13 165.287 230.949 155.324C242.78 149.377 256.183 145.709 268.236 141.343C276.431 138.374 285.94 136.269 293.137 135.35C299.652 134.518 315.954 133.354 338.019 138.221C355.845 142.153 362.666 147.44 370.905 152.329C379.007 157.136 384.668 162.829 388.391 168.507C393.87 176.865 389.497 193.501 384.668 201.843C379.832 210.198 372.696 220.301 362.308 229.219C353.666 236.639 343.346 245.011 320.905 248.829C307.557 251.099 305.905 252.027 277.905 250.329C264.905 249.54 245.935 240.313 232.335 233.989C224.348 230.275 218.348 225.826 210.13 219.311C193.418 206.062 187.539 205.15 186.1 203.518C185.734 203.104 187.496 202.963 188.936 204.04C198.421 211.136 206.016 225.103 210.13 233.989C216.149 246.988 219.36 251.036 222.405 258.829C225.445 266.606 228.269 273.128 230.949 280.383C235.337 292.26 233.418 286.805 235.405 295.147C244.113 331.698 227.651 343.597 222.635 348.872C220.401 351.221 217.405 353.967 212.905 355.829C198.405 361.829 181.392 358.252 167.405 350.829C156.355 344.964 153.523 342.355 146.905 335.829C137.93 326.978 133.176 318.171 129.405 300.829C125.428 282.534 133.44 259.935 136.475 250.527C141.887 233.748 154.669 218.219 160.405 211.329C165.974 204.64 174.09 211.075 175.905 208.329C183.052 197.517 161.048 223.585 154.608 230.492C147.267 238.365 134.018 255.738 116.405 270.329C98.4079 285.239 71.4211 283.396 53.9055 280.329C42.6339 278.355 27.9965 269.529 21.9055 262.829C14.2278 254.383 10.1761 245.879 6.40548 234.829C2.28344 222.748 8.10805 206.618 12.5662 200.473C24.3397 184.244 42.3504 175.428 52.4053 172.329C62.4798 169.223 68.964 167.811 76.1292 165.809C87.6889 162.581 96.5291 163.09 112.439 163.259C127.656 163.42 134.493 168.507 143.447 171.231C150.579 173.401 154.925 175.043 156.542 176.126C168.764 184.307 112.729 178.317 99.8431 174.701C89.3181 171.747 67.7179 160.262 54.7034 150.419C46.2729 144.043 37.5101 133.397 34.0994 124.865C31.2343 117.697 29.1624 112.981 27.9055 104.829C25.3858 88.4865 28.3517 79.2093 33.9055 70.3286C41.1055 58.8156 60.4055 51.3286 75.9358 49.0715C83.6407 47.9517 90.2626 46.9071 103.905 49.0715C112.008 50.3569 127.661 59.3498 138.613 67.703C146.812 73.9567 156.193 79.0177 164.405 89.3286C181.747 111.101 180.458 115.877 184.405 125.329C185.241 127.329 188.592 140.924 188.774 146.161C188.957 151.398 188.957 159.653 188.957 168.159" stroke="#2F2E2C" stroke-width="10" stroke-linecap="round"/>
<path d="M208.05 162.967C204.962 160.83 203.045 159.813 201.336 159.555C200.481 159.425 194.77 159.299 186.4 159.4C181.228 159.463 179.365 160.724 177.709 161.486C176.004 162.271 174.776 163.877 172.488 166.111C167.129 171.344 166.348 176.498 165.759 179.508C165.017 183.301 165.381 187.805 167.186 193.247C169.216 199.368 173.157 200.138 178.319 202.278C181.981 203.795 187.749 203.61 193.344 203.509C198.302 203.42 201.208 201.679 204.992 199.396C211.445 195.503 212.203 191.704 214.069 188.852C216.212 185.575 216.895 181.626 217.808 176.541C218.757 171.258 216.911 165.032 215.263 159.998C213.96 156.018 210.731 153.606 208.069 151.673C206.111 150.252 203.375 149.12 199.651 147.799C195.803 146.433 189.003 146.058 180.063 146.107C171.946 146.152 166.044 147.58 162.106 148.697C155.44 150.588 152.492 152.876 149.82 155.165C148.606 156.205 146.201 158.969 143.429 163.09C141.745 165.596 141.173 168.953 140.799 174.131C140.353 180.305 142.332 187.075 144.356 192.671C145.596 196.102 147.452 199.008 150.426 202.666C153.931 206.976 157.909 208.597 159.399 209.309C160.814 209.986 163.128 210.229 168.378 210.484C172.145 210.667 178.168 210.437 183.17 209.881C192.064 208.892 196.84 206.773 198.597 205.757C201.505 204.075 203.666 201.385 205.643 198.578C207.68 195.688 207.41 192.218 207.675 187.591C207.962 182.593 207.202 176.645 205.874 171.106C203.689 161.993 200.274 159.312 197.135 155.903C193.866 152.354 186.965 150.45 180.418 148.414C174.957 146.717 169.781 146.77 165.045 147.022C160.563 147.261 156.866 149.307 153.674 151.591C150.212 154.068 148.111 156.846 146.727 158.675C145.412 160.413 144.165 163.455 142.833 167.873C140.267 176.375 143.404 180.165 145.373 183.731C146.912 186.517 149.164 188.123 150.969 189.137C153.746 190.699 157.788 191.79 163.788 192.3C167.557 192.621 172.85 192.205 177.418 191.547C185.792 190.34 191.602 187.527 195.594 185.039C199.505 182.602 202.274 178.066 204.832 174.198C207.114 170.749 207.09 167.061 206.719 164.756C206.325 162.312 201.771 161.543 198.623 160.931C196.694 160.557 194.303 160.626 189.056 160.471C185.079 160.354 178.424 160.821 173.466 161.28C168.508 161.738 165.445 162.343 162.389 163.209C156.293 164.938 151.746 167.74 149.241 170.182C146.444 172.907 146.29 178.02 146.873 181.086C147.738 185.642 152.133 188.917 156.14 191.785C161.402 195.552 166.533 194.745 173.327 195.052C177.792 195.254 184.344 194.754 188.72 194.346C195.143 193.747 198.754 192.007 201.999 189.724C205.808 187.044 207.935 182.243 209.215 177.921C210.138 174.803 209.544 172.953 209.279 172.14C209.002 171.294 207.739 170.408 205.455 169.392C202.549 168.099 195.938 167.755 188.104 167.653C183.755 167.596 179.916 168.562 175.125 170.136C167.087 172.776 164.325 178.026 162.511 181.539C158.309 189.674 161.324 196.777 162.711 198.916C163.424 200.016 165.583 200.551 170.884 200.959C174.8 201.26 181.253 200.964 185.469 200.659C194.109 200.036 196.095 197.81 198.016 195.927C200.055 193.93 201.426 189.076 202.235 185.336C202.83 182.587 202.61 179.279 202.027 175.613C201.073 169.604 195.474 166.334 192.386 164.401C189.488 162.588 185.032 162.053 181.092 161.594C178.223 161.261 175.532 161.237 172.077 160.982C167.685 160.657 162.636 161.637 158.215 162.603C155.115 163.28 153.02 164.388 150.841 165.908C147.783 168.041 145.66 172.012 144.114 175.925C141.727 181.969 143.301 186.173 144.895 190.046C146.879 194.869 150.117 196.673 153.578 198.51C155.004 199.266 157.548 199.625 161.808 199.836C166.069 200.047 172.088 199.845 177.09 199.338C185.95 198.439 190.866 196.789 192.888 195.926C197.666 193.886 201.637 187.945 203.458 182.746C204.405 180.04 204.421 177.543 204.424 172.206C204.319 171.019 204.107 170.515 203.893 169.801C203.679 169.088 203.467 168.18 202.93 166.328" stroke="#2F2E2C" stroke-width="10" stroke-linecap="round"/>
</svg>
