<svg width="110" height="36" viewBox="0 0 110 36" fill="none" xmlns="http://www.w3.org/2000/svg">
<path d="M4.356 4.466H0V0.242H13.508V4.466H9.152V16.1421H4.356V4.466Z" fill="#2F2E2C"/>
<path d="M14.2349 19.448V16.478C14.6969 16.654 15.0489 16.698 15.4669 16.698C15.7969 16.698 16.1929 16.698 16.5669 16.412C16.9409 16.148 17.0729 15.774 17.1389 15.466L17.2489 14.982L12.8709 4.466H17.5349L19.7569 11.44L21.5169 4.466H25.8069L21.8689 15.466C21.5169 16.456 21.0769 17.82 20.1969 18.634C19.6029 19.184 18.5689 19.734 16.7649 19.734C16.2149 19.734 15.3129 19.69 14.2349 19.448Z" fill="#2F2E2C"/>
<path d="M25.6945 0.242H30.3145V16.1421H25.6945V0.242Z" fill="#2F2E2C"/>
<path d="M39.265 12.5483H43.797C43.489 13.4943 42.983 14.5361 41.663 15.3061C40.255 16.1201 38.759 16.1421 37.593 16.1421C35.855 16.1421 34.029 15.9881 32.643 14.6021C31.785 13.7441 30.861 12.1603 30.861 10.2903C30.861 8.50825 31.477 6.88025 32.533 5.78025C33.897 4.35025 35.657 3.97625 37.373 3.97625C39.925 3.97625 41.399 4.74625 42.257 5.62625C43.775 7.18825 43.797 9.30025 43.797 10.6203V10.8843H35.591C35.569 11.4783 35.899 12.4163 36.185 12.8123C36.471 13.1863 36.911 13.4503 37.593 13.4503C37.923 13.4503 38.385 13.4063 38.693 13.2303C39.045 13.0323 39.199 12.7683 39.265 12.5483ZM35.613 8.68425H39.045C39.045 8.20025 38.869 7.51825 38.561 7.18825C38.231 6.81425 37.791 6.72625 37.417 6.72625C36.955 6.72625 36.493 6.83625 36.163 7.21025C35.811 7.58425 35.635 8.22225 35.613 8.68425Z" fill="#2F2E2C"/>
<path d="M53.3326 4.224V7.766C52.9586 7.7 52.4746 7.656 52.1226 7.656C50.7806 7.656 50.0766 8.206 49.7906 8.492C49.0206 9.284 48.9766 10.45 48.9766 11.506V16.1421H44.3566V4.466H48.7786V6.05C49.2626 5.302 49.8566 4.884 50.2966 4.642C51.0446 4.246 51.8586 4.158 52.5846 4.158C52.8486 4.158 53.0686 4.18 53.3326 4.224Z" fill="#2F2E2C"/>
<path d="M66.4983 8.49409H69.9963C69.5783 10.4081 68.6543 11.5741 68.2143 12.0801L71.3183 16.1421H66.2803L65.3763 14.7201C64.4743 15.5781 63.1763 16.1421 61.0643 16.1421C59.6563 16.1421 58.4023 15.8781 57.2803 14.7561C56.3783 13.8541 55.9436 12.672 55.9436 11.396C55.9436 10.076 56.7803 8.64209 57.2803 8.14209C57.446 7.9764 58.1876 7.106 59.2656 6.688C58.3196 5.786 58.1436 4.84 58.1436 4.07C58.1436 2.64 58.7376 1.716 59.2876 1.188C59.8596 0.616 60.9156 0 62.7636 0C63.8856 0 65.0736 0.286 65.8656 0.902C66.6356 1.496 67.2076 2.552 67.2076 3.74C67.2076 5.258 66.3276 6.732 64.6116 7.502L66.0803 9.44009C66.3003 9.13209 66.4323 8.80209 66.4983 8.49409ZM63.3303 12.1021L61.3943 9.55009C61.1303 9.68209 60.8883 9.88009 60.6903 10.0781C60.3383 10.4301 60.2063 10.7381 60.2063 11.2441C60.2063 11.6401 60.2723 11.9481 60.5803 12.2561C60.9543 12.6301 61.3723 12.6741 61.7903 12.6741C62.2303 12.6741 62.7143 12.5861 63.3303 12.1021ZM62.7196 5.28C62.8736 5.214 63.3576 4.972 63.6436 4.708C63.8856 4.466 64.0836 4.114 64.0836 3.718C64.0836 3.41 63.9516 3.058 63.7536 2.86C63.5556 2.662 63.2036 2.574 62.9176 2.574C62.6536 2.574 62.3236 2.684 62.1256 2.86C61.9276 3.058 61.8176 3.41 61.8176 3.696C61.8176 4.092 62.0156 4.422 62.2136 4.664C62.4336 4.928 62.4116 4.884 62.7196 5.28Z" fill="#2F2E2C"/>
<path d="M86.4717 11.572V16.1421H75.0097V0.242H79.8057V11.572H86.4717Z" fill="#2F2E2C"/>
<path d="M85.9402 19.448V16.478C86.4022 16.654 86.7542 16.698 87.1722 16.698C87.5023 16.698 87.8982 16.698 88.2722 16.412C88.6462 16.148 88.7782 15.774 88.8442 15.466L88.9542 14.982L84.5762 4.466H89.2402L91.4622 11.44L93.2223 4.466H97.5123L93.5742 15.466C93.2223 16.456 92.7822 17.82 91.9023 18.634C91.3083 19.184 90.2743 19.734 88.4703 19.734C87.9202 19.734 87.0182 19.69 85.9402 19.448Z" fill="#2F2E2C"/>
<path d="M104.946 12.5121H109.478C109.17 13.4581 108.576 14.5361 107.256 15.3061C105.848 16.1201 104.352 16.1421 103.186 16.1421C101.448 16.1421 99.6218 15.9881 98.2358 14.6021C97.3778 13.7441 96.6298 12.254 96.6298 10.384C96.6298 8.602 97.2458 6.974 98.3018 5.874C99.6658 4.444 101.426 4.07 103.142 4.07C105.694 4.07 107.168 4.84 108.026 5.72C109.544 7.282 109.566 9.394 109.566 10.714V10.978H101.36C101.338 11.572 101.58 12.3801 101.866 12.7761C102.152 13.1501 102.592 13.4141 103.274 13.4141C103.604 13.4141 104.066 13.3701 104.374 13.1941C104.726 12.9961 104.88 12.7321 104.946 12.5121ZM101.382 8.778H104.814C104.814 8.294 104.638 7.612 104.33 7.282C104 6.908 103.56 6.82 103.186 6.82C102.724 6.82 102.262 6.93 101.932 7.304C101.58 7.678 101.404 8.316 101.382 8.778Z" fill="#2F2E2C"/>
<path d="M0.618273 26.5581H5.28027V26.6421C5.28027 27.0831 5.261 27.967 5.807 28.408C6.395 28.87 7.298 28.933 8.012 28.933C8.684 28.933 9.335 28.912 9.881 28.639C10.658 28.261 10.721 27.631 10.721 27.379C10.721 26.686 10.259 26.371 9.755 26.182C9.188 25.951 8.642 25.888 7.865 25.762L5.723 25.405C3.938 25.111 2.489 24.88 1.502 23.893C0.788 23.158 0.578 22.318 0.578 21.457C0.578 19.483 1.481 18.286 2.699 17.572C3.308 17.215 4.757 16.543 7.781 16.543C10.616 16.543 12.065 17.089 12.842 17.551C14.669 18.622 15.0903 20.5291 15.0483 21.6421H12.7803H10.5123C10.5333 21.2641 10.28 20.26 9.587 19.903C9.335 19.777 8.852 19.609 7.697 19.609C7.13 19.609 6.458 19.651 5.933 19.924C5.345 20.239 5.219 20.68 5.219 21.016C5.219 21.751 5.849 21.961 6.227 22.066C6.605 22.171 7.109 22.276 8.474 22.486L10.301 22.759C12.296 23.053 13.43 23.473 14.165 24.04C15.383 24.964 15.635 26.224 15.635 27.232C15.635 29.122 14.711 30.256 13.892 30.865C12.422 31.957 10.28 32.083 8.18 32.083C6.206 32.083 3.707 32.02 2.048 30.592C0.746 29.479 0.618273 27.8811 0.618273 26.6421V26.5581Z" fill="#2F2E2C"/>
<path d="M24.5188 20.596C26.3458 20.596 28.4248 20.995 29.7898 22.003C30.9868 22.885 31.8268 24.25 31.8268 26.308C31.8268 28.366 30.9868 29.731 29.7898 30.613C28.4248 31.621 26.3458 32.02 24.5188 32.02C22.6918 32.02 20.6128 31.621 19.2478 30.613C18.0508 29.731 17.2108 28.366 17.2108 26.308C17.2108 24.25 18.0508 22.885 19.2478 22.003C20.6128 20.995 22.6918 20.596 24.5188 20.596ZM24.5188 23.284C23.7628 23.284 23.0488 23.536 22.5868 24.019C21.9148 24.691 21.8308 25.657 21.8308 26.308C21.8308 26.959 21.9148 27.925 22.5868 28.597C23.0488 29.08 23.7628 29.332 24.5188 29.332C25.2748 29.332 25.9888 29.08 26.4508 28.597C27.1228 27.925 27.2068 26.959 27.2068 26.308C27.2068 25.657 27.1228 24.691 26.4508 24.019C25.9888 23.536 25.2748 23.284 24.5188 23.284Z" fill="#2F2E2C"/>
<path d="M42.3135 26.854V26.749C42.1665 26.875 41.8095 27.148 40.7385 27.253L40.0455 27.316C39.3945 27.379 38.9955 27.421 38.6805 27.61C38.3655 27.799 38.1765 28.135 38.1765 28.534C38.1765 29.017 38.4915 29.269 38.6175 29.353C38.9325 29.563 39.3945 29.605 39.8145 29.605C40.3815 29.605 41.0955 29.542 41.6625 28.933C42.0615 28.513 42.3135 27.82 42.3135 26.854ZM38.3445 24.544H34.1025C34.1235 23.599 34.4385 22.423 35.7825 21.562C36.5595 21.058 37.8195 20.638 40.0665 20.638C41.5575 20.638 43.7835 20.785 45.0225 21.583C46.5135 22.549 46.7235 23.893 46.7235 25.09V29.689C46.7235 30.172 46.7025 30.613 46.8915 30.97C47.0385 31.264 47.2275 31.369 47.3955 31.411V31.642H42.7545L42.5025 30.529H42.3975C41.9985 31.054 41.4735 31.474 40.6965 31.747C39.9615 31.999 39.2475 32.041 38.4285 32.041C37.1055 32.041 35.7825 31.936 34.9005 31.327C34.3125 30.907 33.6615 30.109 33.6615 28.807C33.6615 27.673 34.1655 26.959 34.6905 26.539C35.6775 25.741 37.1685 25.678 38.4495 25.573L40.2135 25.426C40.6125 25.384 41.4315 25.3 41.8095 25.069C42.2085 24.838 42.2715 24.481 42.2715 24.271C42.2715 24.082 42.2085 23.62 41.6415 23.347C41.3685 23.2 40.9485 23.116 40.3185 23.116C39.7935 23.116 39.2475 23.179 38.8485 23.473C38.4075 23.788 38.3235 24.187 38.3445 24.544Z" fill="#2F2E2C"/>
<path d="M56.4104 23.347C55.6964 23.347 55.0454 23.536 54.5414 24.145C53.9534 24.838 53.8904 25.783 53.8904 26.308C53.8904 26.833 53.9534 27.778 54.5414 28.471C55.0454 29.08 55.6964 29.269 56.4104 29.269C57.1244 29.269 57.7754 29.08 58.2794 28.471C58.8674 27.778 58.9304 26.833 58.9304 26.308C58.9304 25.783 58.8674 24.838 58.2794 24.145C57.7754 23.536 57.1244 23.347 56.4104 23.347ZM49.5434 20.974H53.7854V22.234H53.8694C54.2474 21.772 54.7304 21.394 55.3814 21.1C56.2844 20.701 57.2084 20.659 58.0064 20.659C59.1404 20.659 60.7574 20.764 62.0384 22.024C63.3194 23.263 63.5504 24.922 63.5504 26.224C63.5504 27.547 63.2984 29.332 61.9964 30.613C60.6944 31.894 59.1194 31.957 57.9644 31.957C57.1034 31.957 56.2424 31.915 55.4444 31.642C54.8354 31.432 54.3944 31.138 53.9954 30.676V35.527H49.5434V20.974Z" fill="#2F2E2C"/>
<path d="M82.175 26.35H86.879C86.816 29.164 85.136 30.529 84.443 30.97C82.973 31.936 80.936 32.083 78.836 32.083C76.631 32.083 74.258 31.915 72.305 30.004C70.604 28.324 70.226 26.182 70.226 24.376C70.226 22.549 70.646 20.428 72.326 18.748C74.3 16.774 76.841 16.543 78.836 16.543C81.671 16.543 83.351 17.089 84.422 17.782C86.48 19.105 86.774 20.974 86.795 22.087H82.049C81.965 21.163 81.419 20.659 81.104 20.449C80.789 20.239 80.18 19.987 78.962 19.987C78.122 19.987 77.135 20.113 76.295 20.995C75.77 21.562 75.224 22.612 75.224 24.397C75.224 26.056 75.728 27.064 76.337 27.673C77.177 28.513 78.206 28.639 79.088 28.639C79.76 28.639 80.6 28.597 81.272 28.072C81.65 27.778 82.112 27.211 82.175 26.35Z" fill="#2F2E2C"/>
<path d="M95.6604 20.596C97.4874 20.596 99.5664 20.995 100.931 22.003C102.128 22.885 102.968 24.25 102.968 26.308C102.968 28.366 102.128 29.731 100.931 30.613C99.5664 31.621 97.4874 32.02 95.6604 32.02C93.8334 32.02 91.7544 31.621 90.3894 30.613C89.1924 29.731 88.3524 28.366 88.3524 26.308C88.3524 24.25 89.1924 22.885 90.3894 22.003C91.7544 20.995 93.8334 20.596 95.6604 20.596ZM95.6604 23.284C94.9044 23.284 94.1904 23.536 93.7284 24.019C93.0564 24.691 92.9724 25.657 92.9724 26.308C92.9724 26.959 93.0564 27.925 93.7284 28.597C94.1904 29.08 94.9044 29.332 95.6604 29.332C96.4164 29.332 97.1304 29.08 97.5924 28.597C98.2644 27.925 98.3484 26.959 98.3484 26.308C98.3484 25.657 98.2644 24.691 97.5924 24.019C97.1304 23.536 96.4164 23.284 95.6604 23.284Z" fill="#2F2E2C"/>
<path d="M104.824 31.642V27.694H109.36V31.642H104.824Z" fill="#2F2E2C"/>
</svg>
