<svg width="318" height="291" viewBox="0 0 318 291" fill="none" xmlns="http://www.w3.org/2000/svg">
<path d="M143.565 143.749C142.204 144.579 140.357 146.812 139.83 148.711C139.482 149.965 139.271 152.288 139.3 154.27C139.324 155.869 139.593 157.547 140.829 161.663C142.442 167.03 145.339 167.864 146.608 168.841C148.685 170.439 152.857 171.733 154.171 172.015C155.781 172.362 158.339 172.16 160.151 171.721C162.661 171.114 167.112 167.03 168.645 165.322C170.015 163.795 171.321 161.04 171.726 159.882C172.088 158.848 172.152 157.671 172.351 156.186C172.552 154.692 171.631 151.44 171.016 149.599C170.591 148.325 170.027 147.374 167.491 143.213C166.385 141.399 165.057 140.426 163.968 139.687C163.03 139.05 161.914 138.568 160.812 138.19C159.476 137.731 158.346 137.879 156.513 138.054C155.247 138.175 154.254 138.419 153.316 138.64C152.296 138.881 151.21 139.576 149.358 140.6C148.349 141.158 147.507 142.178 146.856 143.206C146.441 143.86 146.177 144.587 145.878 145.357M145.878 145.357C145.786 145.592 145.692 145.83 145.589 146.072C145.089 147.248 145.155 148.984 145.493 150.805C145.609 151.427 146.257 152.662 147.231 154.302M145.878 145.357C147.364 144.218 149.28 142.989 150.922 142.895C152.445 142.807 154.006 143.044 155.42 143.681C156.276 144.067 157.266 144.45 158.237 145.088M145.878 145.357C145.383 145.736 144.937 146.105 144.564 146.419C142.839 147.872 142.621 149.767 141.63 152.912C140.375 156.894 141.169 159.577 142.167 162.706C143.327 166.341 146.882 168.165 149.236 169.373L149.294 169.402C151.853 170.716 155.831 171.666 157.371 171.774C159.365 171.914 160.577 171.427 163.469 169.492C166.644 167.368 166.624 165.09 167.752 162.279C169.133 158.838 168.024 156.288 167.701 154.381C167.348 152.298 166.348 151.227 164.111 147.611C163.204 146.145 161.973 145.584 161.027 145.185C160.219 144.844 159.277 144.848 158.237 145.088M147.231 154.302C147.855 155.352 148.612 156.57 149.449 157.899C151.038 160.424 153.593 161.295 154.934 161.461C155.437 161.523 155.987 161.373 156.546 161.088M147.231 154.302C147.424 153.706 147.741 153.062 148.263 152.364C149.94 150.121 150.719 148.257 155.811 145.951C156.662 145.565 157.476 145.263 158.237 145.088M147.231 154.302C146.79 155.659 146.994 156.768 146.89 157.706C146.739 159.078 147.294 160.181 148.094 161.991C150.024 166.355 151.989 167.444 153.079 168.139C155.045 169.393 157.121 169.617 158.662 169.279C161.3 168.699 162.067 166.404 162.984 164.449C163.534 163.276 163.161 161.278 162.524 158.798C162.367 158.186 161.898 157.347 161.255 156.361M156.546 161.088C158.33 160.181 160.209 157.91 160.97 156.807C161.071 156.661 161.166 156.513 161.255 156.361M156.546 161.088C156.658 160.747 156.823 160.36 157.024 159.868C157.99 157.499 158.644 155.46 159.872 155.101C160.1 155.034 160.379 155.065 160.725 155.57C160.912 155.842 161.089 156.106 161.255 156.361M156.546 161.088C156.468 161.327 156.415 161.543 156.394 161.756C156.275 162.95 157.629 164.829 159.012 166.058C159.325 166.185 159.61 166.218 159.869 166.201C160.129 166.185 160.353 166.117 160.73 165.958M161.255 156.361C161.962 155.162 162.335 153.776 162.475 152.297C162.694 149.997 161.652 149.131 160.67 147.571C159.946 146.422 159.099 145.654 158.237 145.088M144.039 141.762C143.722 141.242 136.786 133.343 123.593 116.974C118.944 111.206 115.099 105.518 111.903 100.157M111.903 100.157C105.576 89.5429 101.791 80.2085 99.3395 74.0576C95.414 64.2092 92.923 55.8517 92.2419 49.7647C91.4378 42.5792 90.9035 33.6987 95.0672 24.4068C97.8402 18.2183 106.916 12.1078 119.446 7.14874C130.59 2.73851 139.218 1.74486 148.665 3.00547C155.599 3.93063 164.661 5.82358 170.813 11.8059C182.601 23.2692 180.551 20.7245 186.557 34.3736C193.901 51.0607 190.704 71.0334 188.585 82.857C186.564 94.1354 182.603 105.203 177.727 124.502M111.903 100.157C110.005 99.3918 107.907 98.588 105.578 97.7395C95.0666 93.9114 86.0258 94.4002 77.3158 93.5027C65.6817 92.304 50.3541 92.7228 43.9082 95.3783C33.0539 99.8498 28.7105 103.537 23.6147 107.757C13.3431 116.264 2.64536 130.225 2.5043 141.744C2.3955 150.63 4.33941 158.657 13.3826 169.37C17.8936 174.714 21.4793 177.211 26.7224 181.13C32.9642 185.797 44.0221 189.623 52.9539 190.507C59.8898 191.194 68.5853 191.219 76.6532 190.754M111.903 100.157C128.083 106.68 129.684 110.385 135.983 114.944C137.472 116.022 145.905 124.379 148.35 128.088C150.794 131.798 154.439 137.773 158.194 143.929M177.727 124.502C177.511 125.358 177.293 126.231 177.073 127.121C173.666 140.902 167.231 145.243 164.528 148.167C160.443 152.584 168.994 138.543 177.727 124.502ZM177.727 124.502C179.45 121.732 181.18 118.961 182.822 116.333L182.996 116.055C188.954 106.514 197.059 97.9277 203.876 89.4326C208.511 83.6569 214.481 77.925 219.298 74.0743C223.657 70.5892 234.971 62.5315 253.13 56.2887C267.799 51.2453 275.082 52.0529 283.219 51.9449C291.219 51.8386 297.84 53.4536 303.048 55.9156C310.714 59.5399 314.885 73.5161 315.065 81.6912C315.245 89.8788 314.527 100.349 310.928 111.402C307.933 120.596 304.142 131.223 289.545 143.918C280.863 151.47 280.074 152.872 259.009 164.035C249.228 169.218 231.391 170.936 218.731 172.377C211.297 173.224 204.979 172.659 196.14 171.581C187.292 170.501 181.668 170.424 178.028 170.558M178.028 170.558C174.273 170.697 172.628 171.062 171.732 170.786C171.284 170.648 172.5 169.766 174.02 169.909C175.332 170.032 176.673 170.254 178.028 170.558ZM178.028 170.558C187.013 172.578 196.617 178.198 202.62 182.204C212.726 188.949 216.843 190.458 222.493 194.75C228.132 199.034 233.061 202.505 238.208 206.569C246.636 213.223 242.835 210.125 247.96 215.284C270.415 237.884 263.724 253.782 262.413 259.82C261.83 262.509 260.868 265.822 258.426 269.161C250.554 279.921 236.631 284.862 223.205 285.68C212.599 286.326 209.391 285.691 201.709 283.896C191.29 281.462 183.952 277.192 173.559 266.309C162.902 255.148 158.669 236.026 156.649 227.48M156.649 227.48C156.591 227.235 156.535 226.999 156.481 226.773C153 212.234 155.418 195.337 156.538 187.811C157.374 182.189 162.736 181.524 165.211 180.245M156.649 227.48C158.618 217.792 159.721 209.428 160.792 204.247C161.791 199.418 163.862 186.733 165.211 180.245M156.649 227.48C155.218 234.521 153.329 242.261 150.662 249.987C144.186 268.744 123.792 279.354 109.73 284.886C100.68 288.446 86.163 288.536 78.7857 286.383C69.4865 283.668 62.7923 279.306 55.1777 272.977C46.8535 266.058 43.9581 251.805 44.4796 245.384C45.8569 228.427 55.0327 214.076 60.9596 207.382C66.8979 200.675 70.9791 196.783 75.2943 192.164C75.7481 191.678 76.2006 191.209 76.6532 190.754M165.211 180.245C165.953 179.861 166.435 179.423 166.459 178.779C166.618 174.551 166.056 176.186 165.211 180.245ZM76.6532 190.754C83.1428 184.235 89.6524 180.716 100.513 174.248C111.625 167.63 118.831 168.286 126.531 166.295C132.663 164.709 136.542 163.974 138.193 164.042C150.673 164.554 107.371 185.019 96.4256 188.104C91.9823 189.356 84.6241 190.295 76.6532 190.754ZM169.755 131.721C166.571 131.542 164.731 131.653 163.378 132.223C163.258 132.273 163.028 132.391 162.697 132.571M162.697 132.571C161.158 133.411 157.435 135.612 152.473 138.721C149.714 140.45 148.562 141.851 147.799 142.984M162.697 132.571C163.386 132.804 164.093 133.078 164.829 133.426M162.697 132.571C161.327 132.109 160.029 131.813 158.717 131.439C154.778 130.317 148.931 131.993 143.282 133.418C140.212 134.192 137.557 135.451 135.161 136.864M147.799 142.984C147.599 143.281 147.426 143.559 147.257 143.82M147.799 142.984C150.335 141.183 152.961 139.412 154.873 138.321C158.747 136.111 160.452 135.003 162.016 134.42C162.874 134.101 163.854 133.725 164.829 133.426M147.799 142.984C146.791 143.699 145.798 144.419 144.869 145.102M147.257 143.82C147.2 143.908 147.144 143.993 147.087 144.077C146.197 145.4 146.015 147.106 145.341 149.736C144.37 153.528 144.644 156.531 145.209 158.848M147.257 143.82C148.029 143.413 148.792 143.027 149.589 142.659C152.651 141.247 156.12 139.662 159.023 139.692C160.426 139.706 162.324 139.692 164.291 140.037M147.257 143.82C146.483 144.227 145.701 144.654 144.869 145.102M145.209 158.848C145.561 160.294 146.027 161.473 146.374 162.41C147.451 165.325 149.532 168.262 152.91 171.236M145.209 158.848C145.72 156.582 146.812 154.082 149.031 151.482C151.812 148.222 154.171 145.824 157.352 143.94C159.856 142.457 162.21 141.112 164.291 140.037M145.209 158.848C144.646 161.348 144.791 163.563 144.913 165.318C145.169 168.965 146.484 171.738 148.007 173.75M152.91 171.236C153.095 171.398 153.283 171.561 153.475 171.723C153.892 172.076 154.299 172.382 154.7 172.645M152.91 171.236C152.102 171.734 151.321 172.177 150.591 172.541C149.685 172.994 148.825 173.396 148.007 173.75M152.91 171.236C155.284 169.772 157.892 167.828 160.148 165.964C165.691 161.384 168.664 156.777 170.463 153.209C171.675 150.804 172.056 147.92 172.224 145.073M154.7 172.645C156.563 173.874 158.269 174.193 160.066 174.123M154.7 172.645C152.854 173.715 151.115 174.629 149.201 175.144M154.7 172.645C155.962 171.914 157.275 171.11 158.727 170.311C162.056 168.481 166.589 165.22 169.584 162.988C172.311 160.955 174.059 159.084 175.314 157.219M160.066 174.123C160.957 174.088 161.871 173.957 162.837 173.794M160.066 174.123C158.092 175.49 156.041 176.811 154.2 177.896M160.066 174.123C161.204 173.334 162.317 172.53 163.35 171.748C169.381 167.176 172.22 163.806 173.306 162.286C174.302 160.892 174.951 159.126 175.314 157.219M162.837 173.794C163.69 173.65 164.584 173.482 165.539 173.332C168.866 172.809 172.97 170.122 176.985 167.573C180.542 165.314 181.882 162.768 183.62 159.441C183.638 159.406 183.656 159.371 183.674 159.336M162.837 173.794C161.653 174.524 160.525 175.178 159.562 175.668C156.992 176.977 155.328 177.682 154.2 177.896M162.837 173.794C165.313 172.268 168.035 170.407 170.013 168.996C176.006 164.721 176.464 162.231 177.027 160.018C177.366 158.684 177.143 156.78 176.691 154.821M183.674 159.336C186.569 153.729 185.457 150.664 185.55 147.792C185.657 144.527 184.452 141.418 182.907 137.431L182.828 137.227C181.184 132.983 177.096 129.295 173.677 126.38C170.975 124.076 167.568 123.759 164.783 123.539C162.735 123.376 160.25 123.768 156.965 124.46C153.57 125.174 148.471 127.913 142.005 131.905C139.275 133.591 137.025 135.281 135.161 136.864M183.674 159.336C183.46 161.981 183.034 164.594 181.788 166.875C180.962 168.388 178.432 172.035 172.416 176.688C169.032 179.304 164.764 182.137 161.95 183.671C158.028 185.81 156.242 186.658 154.916 186.795C153.521 186.939 149.919 187.526 145.473 185.957C141.7 184.626 139.071 183.344 136.656 181.41C132.717 178.255 128.292 174.231 125.89 169.566C123.875 165.652 122.808 162.969 122.924 160.41C123.042 157.815 123.286 155.655 123.556 154.077M183.674 159.336C183.695 159.078 183.714 158.82 183.731 158.561C183.933 155.568 182.205 153.175 180.355 149.709C179.684 148.453 178.881 147.171 177.981 145.893M135.161 136.864C133.017 138.684 131.385 140.362 130.12 141.727C126.119 146.046 124.99 149.006 124.061 151.846C123.9 152.34 123.723 153.096 123.556 154.077M135.161 136.864C133.88 137.62 132.672 138.42 131.514 139.214C128.366 141.37 126.588 144.487 125.28 147.553C124.226 150.025 123.79 152.285 123.556 154.077M123.556 154.077C123.475 154.695 123.417 155.257 123.367 155.754L123.367 155.755C123.18 157.595 123.619 160.349 124.602 164.136C125.807 168.775 127.844 171.01 129.94 172.463M177.981 145.893C176.317 143.532 174.322 141.184 172.222 139.034M177.981 145.893C178.327 148.57 178.234 151.344 177.178 153.765C177.023 154.12 176.862 154.471 176.691 154.821M177.981 145.893C177.808 144.563 177.528 143.256 177.202 142.029C176.496 139.364 175.248 138.288 174.697 137.817C174.228 137.417 173.271 137.288 171.791 137.404M172.222 139.034C172.072 138.88 171.921 138.727 171.77 138.575C171.398 138.202 171.035 137.852 170.68 137.524M172.222 139.034C172.349 139.735 172.409 140.483 172.379 141.274C172.371 141.487 172.364 141.701 172.356 141.916M172.222 139.034C172.118 138.458 171.97 137.915 171.791 137.404M170.68 137.524C168.471 135.476 166.568 134.247 164.829 133.426M170.68 137.524C170.69 137.522 170.699 137.521 170.709 137.52C171.096 137.469 171.457 137.43 171.791 137.404M170.68 137.524C170.221 137.586 169.696 137.716 169.113 137.905M164.829 133.426C166.76 132.834 168.673 132.546 169.579 133.605C170.338 134.492 171.221 135.779 171.791 137.404M129.94 172.463C131.138 173.293 132.355 173.868 133.447 174.489C135.794 175.825 138.136 175.99 139.894 175.926C140.893 175.889 141.99 175.729 143.206 175.427M129.94 172.463C129.577 171.562 129.286 170.549 129.087 169.397C128.481 165.88 128.268 162.067 129.545 159.169C130.455 157.105 131.486 155.375 133.436 153.514C136.218 150.858 139.449 147.914 142.779 146.205C143.521 145.824 144.211 145.457 144.869 145.102M129.94 172.463C131.29 175.812 133.63 177.619 135.888 179.272C139.457 181.884 142.603 181.757 145.925 181.554C147.293 181.471 149.298 180.605 152.482 178.872C153.026 178.576 153.602 178.248 154.2 177.896M143.206 175.427C144.63 175.074 146.218 174.525 148.007 173.75M143.206 175.427C139.496 175.103 135.671 174.455 133.367 171.912C131.591 169.95 129.445 166.181 130.271 162.971C131.011 160.095 133.073 156.054 136.733 152.105C138.568 150.126 140.523 148.332 143.918 145.806C144.225 145.577 144.543 145.342 144.869 145.102M143.206 175.427C143.747 175.475 144.284 175.515 144.815 175.554C146.427 175.671 147.857 175.506 149.201 175.144M148.007 173.75C148.396 174.264 148.799 174.728 149.201 175.144M172.224 145.073C172.287 144.006 172.32 142.945 172.356 141.916M172.224 145.073C173.669 146.922 174.799 148.717 175.412 150.485C175.47 150.652 175.529 150.823 175.587 150.997M172.224 145.073C171.828 144.566 171.408 144.055 170.969 143.54C169.14 141.393 166.665 140.453 164.291 140.037M172.356 141.916C173.931 144.549 174.74 146.12 175.156 148.069C175.353 148.995 175.5 149.982 175.587 150.997M172.356 141.916C172.01 141.338 171.627 140.709 171.204 140.013C170.603 139.2 170.227 138.929 169.756 138.507C169.567 138.338 169.365 138.146 169.113 137.905M149.201 175.144C150.57 176.561 151.932 177.424 152.731 177.807C153.093 177.98 153.561 178.017 154.2 177.896M175.314 157.219C175.85 156.422 176.297 155.627 176.691 154.821M175.314 157.219C175.697 155.21 175.764 153.046 175.587 150.997M176.691 154.821C176.391 153.519 175.99 152.194 175.587 150.997M169.113 137.905C167.781 138.338 166.144 139.08 164.291 140.037M169.113 137.905C168.736 137.547 168.247 137.08 167.524 136.42" stroke="#2F2E2C" stroke-width="5" stroke-linecap="round"/>
</svg>
